<?xml version="1.0" standalone="no"?>
<!DOCTYPE svg PUBLIC "-//W3C//DTD SVG 20010904//EN"
 "http://www.w3.org/TR/2001/REC-SVG-20010904/DTD/svg10.dtd">
<svg version="1.0" xmlns="http://www.w3.org/2000/svg"
 width="100.000000pt" height="100.000000pt" viewBox="0 0 100.000000 100.000000"
 preserveAspectRatio="xMidYMid meet">
<metadata>
Created by potrace 1.14, written by Peter Selinger 2001-2017
</metadata>
<g transform="translate(0.000000,100.000000) scale(0.100000,-0.100000)"
fill="#000000" stroke="none">
<path d="M287 613 c-14 -26 -37 -77 -52 -113 -51 -123 -65 -149 -87 -164 -21
-15 -20 -16 37 -15 46 0 55 2 38 9 -25 10 -30 39 -13 71 9 15 22 19 69 19 57
0 59 -1 70 -31 16 -46 14 -57 -11 -62 -13 -2 15 -5 61 -6 70 -1 82 1 69 12
-17 12 -36 52 -108 222 -24 55 -44 102 -46 103 -1 2 -14 -18 -27 -45z m8 -100
c9 -21 21 -46 26 -55 8 -16 4 -18 -42 -18 -37 0 -50 3 -46 13 28 70 40 97 43
97 2 0 10 -17 19 -37z"/>
<path d="M473 628 c36 -37 109 -178 112 -217 3 -49 -10 -79 -37 -84 -13 -2 22
-4 77 -4 55 -1 91 2 80 4 -35 9 -41 21 -40 81 1 48 7 66 33 104 18 26 32 51
32 55 0 5 15 26 34 46 l34 37 -52 -1 c-41 0 -46 -2 -28 -9 12 -5 22 -13 22
-18 0 -13 -77 -137 -85 -137 -4 0 -25 33 -47 72 l-40 73 24 9 c17 7 3 10 -59
10 l-82 1 22 -22z"/>
<path d="M792 378 c-25 -25 -6 -68 30 -68 10 0 24 12 30 26 11 22 10 28 -7 40
-23 17 -37 18 -53 2z"/>
</g>
</svg>
